<mxfile host="app.diagrams.net" agent="Mozilla/5.0 (Windows NT 10.0; Win64; x64) AppleWebKit/537.36 (KHTML, like Gecko) Chrome/140.0.0.0 Safari/537.36" version="28.2.1">
  <diagram id="1DYhLiui3gADzX8ybgZy" name="ページ1">
    <mxGraphModel dx="746" dy="498" grid="1" gridSize="10" guides="1" tooltips="1" connect="1" arrows="1" fold="1" page="1" pageScale="1" pageWidth="827" pageHeight="1169" math="0" shadow="0">
      <root>
        <mxCell id="0" />
        <mxCell id="1" parent="0" />
        <mxCell id="2" value="robodog" style="rounded=0;whiteSpace=wrap;html=1;" parent="1" vertex="1">
          <mxGeometry x="300" y="20" width="120" height="60" as="geometry" />
        </mxCell>
        <mxCell id="Nahb1-3SfjUUIR4YFqGA-3" value="名前" style="rounded=0;whiteSpace=wrap;html=1;" vertex="1" parent="1">
          <mxGeometry x="40" y="200" width="120" height="60" as="geometry" />
        </mxCell>
        <mxCell id="Nahb1-3SfjUUIR4YFqGA-4" value="" style="endArrow=none;startArrow=diamond;html=1;rounded=0;startFill=0;startSize=9;exitX=0.25;exitY=1;exitDx=0;exitDy=0;entryX=0.5;entryY=0;entryDx=0;entryDy=0;endFill=0;" edge="1" parent="1" source="2" target="Nahb1-3SfjUUIR4YFqGA-3">
          <mxGeometry width="50" height="50" relative="1" as="geometry">
            <mxPoint x="210" y="150" as="sourcePoint" />
            <mxPoint x="320" y="320" as="targetPoint" />
          </mxGeometry>
        </mxCell>
        <mxCell id="Nahb1-3SfjUUIR4YFqGA-7" value="時刻" style="rounded=0;whiteSpace=wrap;html=1;" vertex="1" parent="1">
          <mxGeometry x="170" y="200" width="120" height="60" as="geometry" />
        </mxCell>
        <mxCell id="Nahb1-3SfjUUIR4YFqGA-8" value="" style="endArrow=none;startArrow=diamond;html=1;rounded=0;startFill=0;startSize=9;exitX=0.386;exitY=1.017;exitDx=0;exitDy=0;entryX=0.5;entryY=0;entryDx=0;entryDy=0;endFill=0;exitPerimeter=0;" edge="1" parent="1" target="Nahb1-3SfjUUIR4YFqGA-7" source="2">
          <mxGeometry width="50" height="50" relative="1" as="geometry">
            <mxPoint x="480" y="240" as="sourcePoint" />
            <mxPoint x="590" y="480" as="targetPoint" />
          </mxGeometry>
        </mxCell>
        <mxCell id="Nahb1-3SfjUUIR4YFqGA-10" value="" style="endArrow=none;startArrow=diamond;html=1;rounded=0;startFill=0;startSize=9;entryX=0.5;entryY=0;entryDx=0;entryDy=0;endFill=0;exitX=0.75;exitY=1;exitDx=0;exitDy=0;" edge="1" parent="1" target="Nahb1-3SfjUUIR4YFqGA-9" source="2">
          <mxGeometry width="50" height="50" relative="1" as="geometry">
            <mxPoint x="400" y="90" as="sourcePoint" />
            <mxPoint x="750" y="510" as="targetPoint" />
          </mxGeometry>
        </mxCell>
        <mxCell id="Nahb1-3SfjUUIR4YFqGA-11" value="挨拶" style="rounded=0;whiteSpace=wrap;html=1;" vertex="1" parent="1">
          <mxGeometry x="300" y="200" width="120" height="60" as="geometry" />
        </mxCell>
        <mxCell id="Nahb1-3SfjUUIR4YFqGA-12" value="" style="endArrow=none;startArrow=diamond;html=1;rounded=0;startFill=0;startSize=9;exitX=0.5;exitY=1;exitDx=0;exitDy=0;entryX=0.5;entryY=0;entryDx=0;entryDy=0;endFill=0;" edge="1" parent="1" target="Nahb1-3SfjUUIR4YFqGA-11" source="2">
          <mxGeometry width="50" height="50" relative="1" as="geometry">
            <mxPoint x="660" y="280" as="sourcePoint" />
            <mxPoint x="770" y="520" as="targetPoint" />
          </mxGeometry>
        </mxCell>
        <mxCell id="Nahb1-3SfjUUIR4YFqGA-9" value="足し算結果" style="rounded=0;whiteSpace=wrap;html=1;" vertex="1" parent="1">
          <mxGeometry x="430" y="200" width="120" height="60" as="geometry" />
        </mxCell>
        <mxCell id="Nahb1-3SfjUUIR4YFqGA-14" value="2つの整数" style="rounded=0;whiteSpace=wrap;html=1;" vertex="1" parent="1">
          <mxGeometry x="560" y="200" width="120" height="60" as="geometry" />
        </mxCell>
        <mxCell id="Nahb1-3SfjUUIR4YFqGA-15" value="" style="endArrow=none;startArrow=diamond;html=1;rounded=0;startFill=0;startSize=9;entryX=0.5;entryY=0;entryDx=0;entryDy=0;endFill=0;exitX=0.886;exitY=1.039;exitDx=0;exitDy=0;exitPerimeter=0;" edge="1" parent="1" target="Nahb1-3SfjUUIR4YFqGA-14" source="2">
          <mxGeometry width="50" height="50" relative="1" as="geometry">
            <mxPoint x="390" y="80" as="sourcePoint" />
            <mxPoint x="890" y="480" as="targetPoint" />
          </mxGeometry>
        </mxCell>
      </root>
    </mxGraphModel>
  </diagram>
</mxfile>
